<?xml version="1.0" encoding="UTF-8"?>
<svg width="151px" height="25px" viewBox="0 0 151 25" version="1.1" xmlns="http://www.w3.org/2000/svg" xmlns:xlink="http://www.w3.org/1999/xlink">
    <title>Alvaro Gellings Copy 3</title>
    <g id="Page-1" stroke="none" stroke-width="1" fill="none" fill-rule="evenodd">
        <g id="Preloader-Start-korr" transform="translate(-67, -364)" fill="#FFFFFF">
            <g id="Alvaro-Gellings-Copy-2" transform="translate(67, 364)" fill-rule="nonzero">
                <path d="M0,19.3498452 L3.12348154,19.3498452 L5.1885933,14.5510836 L13.3974126,14.5510836 L15.4883382,19.3498452 L18.6376337,19.3498452 L10.6353256,1.03199174 L8.00230808,1.03199174 L0,19.3498452 Z M9.29300293,5.10835913 L12.2357872,11.8679051 L6.35021867,11.8679051 L9.29300293,5.10835913 Z" id="Shape"></path>
                <polygon id="Path" points="17.8228192 19.3498452 20.6623479 19.3498452 20.6623479 0 17.8228192 0"></polygon>
                <polygon id="Path" points="25.6814742 19.3498452 28.1854222 19.3498452 34.0451768 6.4499484 30.8700675 6.4499484 26.9205412 15.505676 22.9968289 6.4499484 19.8475334 6.4499484"></polygon>
                <path d="M38.1866306,19.6078431 C40.0452312,19.6078431 41.594065,18.6532508 42.3168541,17.621259 L42.3168541,19.3498452 L45.1563828,19.3498452 L45.1563828,6.4499484 L42.3168541,6.4499484 L42.3168541,8.17853457 C41.594065,7.14654283 40.0452312,6.19195046 38.1866306,6.19195046 C34.6501267,6.19195046 31.9654814,9.21052632 31.9654814,12.8998968 C31.9654814,16.5892673 34.6501267,19.6078431 38.1866306,19.6078431 Z M38.7029085,17.0278638 C36.4312856,17.0278638 34.8566379,15.2218782 34.8566379,12.8998968 C34.8566379,10.5779154 36.4312856,8.77192982 38.7029085,8.77192982 C40.9745315,8.77192982 42.5491792,10.5779154 42.5491792,12.8998968 C42.5491792,15.2218782 40.9745315,17.0278638 38.7029085,17.0278638 Z" id="Shape"></path>
                <path d="M46.174355,19.3498452 L49.0138837,19.3498452 L49.0138837,13.0546956 C49.0138837,10.4747162 50.4852759,9.10732714 52.1115514,9.10732714 C52.6278293,9.10732714 53.0408517,9.15892673 53.5313157,9.33952528 L53.5313157,6.42414861 C53.195735,6.34674923 52.8085266,6.32094943 52.4213181,6.32094943 C50.949926,6.32094943 49.5043478,7.2755418 49.0138837,8.74613003 L49.0138837,6.4499484 L46.174355,6.4499484 L46.174355,19.3498452 Z" id="Path"></path>
                <path d="M58.5246281,19.6078431 C62.3450849,19.6078431 65.2878691,16.6408669 65.2878691,12.8998968 C65.2878691,9.15892673 62.3450849,6.19195046 58.5246281,6.19195046 C54.7041713,6.19195046 51.7613871,9.15892673 51.7613871,12.8998968 C51.7613871,16.6408669 54.7041713,19.6078431 58.5246281,19.6078431 Z M58.5246281,16.9762642 C56.2271913,16.9762642 54.6267296,15.1960784 54.6267296,12.8998968 C54.6267296,10.6037152 56.2271913,8.82352941 58.5246281,8.82352941 C60.796251,8.82352941 62.3967126,10.6037152 62.3967126,12.8998968 C62.3967126,15.1960784 60.796251,16.9762642 58.5246281,16.9762642 Z" id="Shape"></path>
                <path d="M77.6493724,19.6594427 C80.4630872,19.6594427 83.3026159,18.8080495 84.9547053,17.0278638 L84.9547053,8.64293086 L77.4170473,8.64293086 L77.4170473,11.4809082 L82.011921,11.4809082 L82.011921,15.5572755 C80.9793651,16.4086687 79.2756479,16.744066 77.6235585,16.744066 C73.4158933,16.744066 70.7828758,13.9060888 70.7828758,10.1909185 C70.7828758,6.57894737 73.493335,3.6377709 77.3396057,3.6377709 C79.5854147,3.6377709 81.1600624,4.41176471 82.3733156,5.62435501 L84.4384273,3.48297214 C82.7088962,1.72858617 80.3598316,0.722394221 77.3396057,0.722394221 C71.8154317,0.722394221 67.736836,4.90196078 67.736836,10.1909185 C67.736836,15.5572755 71.8670595,19.6594427 77.6493724,19.6594427 Z" id="Path"></path>
                <path d="M91.2903403,19.6078431 C94.0007995,19.6078431 96.0142835,18.4726522 97.1759088,16.6150671 L95.0075415,15.0670795 C94.3105663,16.2022704 93.1489409,17.0278638 91.3161542,17.0278638 C89.1477869,17.0278638 87.4698836,15.6604747 87.3408141,13.5190918 L97.4856756,13.5190918 C97.5114895,13.1062951 97.5114895,12.874097 97.5114895,12.5902993 C97.5114895,8.43653251 94.6977747,6.19195046 91.2903403,6.19195046 C87.366628,6.19195046 84.5529132,9.10732714 84.5529132,12.8998968 C84.5529132,16.8472652 87.366628,19.6078431 91.2903403,19.6078431 Z M87.4698836,11.4551084 C87.8829059,9.54592363 89.5091814,8.59133127 91.1870847,8.59133127 C92.8391741,8.59133127 94.3363802,9.59752322 94.6461469,11.4551084 L87.4698836,11.4551084 Z" id="Shape"></path>
                <polygon id="Path" points="97.6001615 19.3498452 100.43969 19.3498452 100.43969 0 97.6001615 0"></polygon>
                <polygon id="Path" points="101.431848 19.3498452 104.271377 19.3498452 104.271377 0 101.431848 0"></polygon>
                <path d="M149.115586,19.3612503 C150.173955,19.3612503 151,18.5098571 151,17.4520655 C151,16.4200738 150.173955,15.5686806 149.115586,15.5686806 C148.08303,15.5686806 147.205357,16.4200738 147.205357,17.4520655 C147.205357,18.5098571 148.08303,19.3612503 149.115586,19.3612503 Z M105.263536,19.3498452 L108.103064,19.3498452 L108.103064,6.4499484 L105.263536,6.4499484 L105.263536,19.3498452 Z" id="Shape"></path>
                <path d="M109.095223,19.3498452 L111.934751,19.3498452 L111.934751,13.003096 C111.934751,10.2167183 113.380329,8.77192982 115.264744,8.77192982 C116.916833,8.77192982 117.949389,9.98452012 117.949389,12.0485036 L117.949389,19.3498452 L120.788918,19.3498452 L120.788918,11.5841073 C120.788918,8.30753354 118.852876,6.19195046 115.858464,6.19195046 C114.18056,6.19195046 112.734982,6.88854489 111.934751,8.20433437 L111.934751,6.4499484 L109.095223,6.4499484 L109.095223,19.3498452 Z" id="Path"></path>
                <path d="M127.408506,16.6666667 C125.240138,16.6666667 123.562235,15.0154799 123.562235,12.7192982 C123.562235,10.4231166 125.240138,8.77192982 127.408506,8.77192982 C129.576873,8.77192982 131.254776,10.4231166 131.254776,12.7192982 C131.254776,15.0154799 129.576873,16.6666667 127.408506,16.6666667 Z M127.150367,25 C130.970824,25 133.86198,22.9618163 133.86198,18.4726522 L133.86198,6.4499484 L131.022451,6.4499484 L131.022451,8.17853457 C130.222221,7.04334365 128.673387,6.19195046 126.892228,6.19195046 C123.407352,6.19195046 120.696893,9.08152735 120.696893,12.7192982 C120.696893,16.3828689 123.407352,19.2724458 126.892228,19.2724458 C128.673387,19.2724458 130.222221,18.3952528 131.022451,17.2600619 L131.022451,18.4468524 C131.022451,21.0526316 129.267106,22.4716202 127.124553,22.4716202 C125.369208,22.4716202 123.949444,21.8008256 122.839446,20.5882353 L121.109915,22.626419 C122.374796,24.0712074 124.594791,25 127.150367,25 Z" id="Shape"></path>
                <path d="M138.958548,19.6078431 C141.617379,19.6078431 143.630863,18.0856553 143.630863,15.6088751 C143.630863,13.4674923 142.288541,12.3839009 140.016918,11.6873065 L138.700409,11.3003096 C137.435528,10.9133127 137.151575,10.3973168 137.151575,9.77812178 C137.151575,8.97832817 138.029248,8.56553148 138.881106,8.56553148 C139.939476,8.56553148 140.739707,9.08152735 141.333427,9.88132095 L143.295283,8.38493292 C142.391796,6.94014448 140.89459,6.19195046 138.932734,6.19195046 C136.351344,6.19195046 134.312047,7.61093911 134.312047,9.88132095 C134.286233,11.8163055 135.422044,13.2094943 137.693667,13.8286894 L138.829479,14.1382869 C140.378312,14.628483 140.817149,15.0412797 140.817149,15.7894737 C140.817149,16.6924665 139.96529,17.1568627 138.958548,17.1568627 C137.642039,17.1568627 136.377158,16.5118679 135.86088,15.376677 L133.769955,16.873065 C134.699255,18.7306502 136.661111,19.6078431 138.958548,19.6078431 Z" id="Path"></path>
            </g>
        </g>
    </g>
</svg>